<svg width="136" height="185" viewBox="0 0 136 185" fill="none" xmlns="http://www.w3.org/2000/svg">
<path d="M51.0513 95.6105C51.0513 93.4671 50.6373 92.03 49.8092 91.2993C49.0298 90.5687 47.1056 90.0328 44.0367 89.6918L44.4751 86.8421H61.6465L61.9387 89.6918L57.4084 90.5687C56.5316 90.7635 56.0688 91.1045 56.0201 91.5916C55.9714 91.7865 55.947 92.0788 55.947 92.4685V118.701C55.947 124.692 54.3151 129.442 51.0513 132.949C47.7876 136.408 42.8919 138.137 36.3643 138.137C23.7963 138.137 17.5123 131.853 17.5123 119.285V94.2221C17.5123 92.712 17.22 91.6891 16.6355 91.1532C16.0996 90.6174 14.5408 90.1302 11.959 89.6918L12.3974 86.8421H30.2995L30.5918 89.6918L26.0615 90.5687C25.0872 90.7635 24.6001 91.3968 24.6001 92.4685V118.189C24.6001 123.158 25.6231 126.909 27.669 129.442C29.715 131.975 33.0275 133.241 37.6065 133.241C42.2343 133.241 45.6198 131.877 47.7632 129.149C49.9553 126.422 51.0513 123.133 51.0513 119.285V95.6105Z" fill="#9D0B0B"/>
<path d="M66.3469 137.479L65.9085 134.63C68.2954 134.143 69.7325 133.655 70.2196 133.168C70.7554 132.632 71.0234 131.731 71.0234 130.465V109.494C71.0234 108.471 70.6337 107.74 69.8543 107.302C69.0748 106.814 67.6135 106.352 65.4701 105.913L65.9085 103.575C71.1208 102.893 74.7499 102.552 76.7959 102.552L77.5997 103.283V132.218C77.5997 132.803 77.7214 133.193 77.965 133.388C78.2573 133.534 78.6226 133.655 79.061 133.753L82.6415 134.63L82.3492 137.479H66.3469ZM77.6727 89.5457C77.6727 90.7635 77.283 91.7865 76.5036 92.6146C75.7729 93.4427 74.7743 93.8568 73.5077 93.8568C72.2899 93.8568 71.2669 93.4914 70.4388 92.7607C69.6594 92.03 69.2697 91.0314 69.2697 89.7649C69.2697 88.4496 69.635 87.4023 70.3657 86.6229C71.1452 85.8435 72.1925 85.4538 73.5077 85.4538C76.2844 85.4538 77.6727 86.8177 77.6727 89.5457Z" fill="#9D0B0B"/>
<path d="M111.838 132.657C109.013 136.31 105.627 138.137 101.681 138.137C97.7355 138.137 94.4961 136.578 91.963 133.461C89.4299 130.294 88.1634 125.983 88.1634 120.527C88.1634 115.071 89.6004 110.59 92.4745 107.082C95.3486 103.575 99.3674 101.821 104.531 101.821C108.087 101.821 110.718 102.455 112.423 103.721L112.934 103.502C112.739 102.723 112.642 101.651 112.642 100.287V88.0112C112.642 86.9882 112.13 86.2332 111.107 85.746C110.133 85.2102 108.355 84.7718 105.773 84.4308L106.212 82.0926C111.424 81.4106 115.491 81.0696 118.414 81.0696L119.218 81.8003V130.319C119.218 131.585 119.51 132.486 120.095 133.022C120.728 133.509 122.287 133.996 124.771 134.484L124.333 136.822L115.565 137.772C115.077 137.772 114.542 137.285 113.957 136.31C113.372 135.336 113.08 134.459 113.08 133.68C113.08 132.9 113.105 132.316 113.153 131.926L112.569 131.707L111.838 132.657ZM95.2511 118.774C95.2511 123.596 96.0062 127.152 97.5163 129.442C99.0751 131.731 101.024 132.876 103.362 132.876C105.7 132.876 108.136 132.048 110.669 130.392C111.984 129.515 112.642 128.394 112.642 127.03V109.567C110.645 107.18 107.527 105.986 103.289 105.986C101.194 105.986 99.5379 106.668 98.3201 108.032C96.2741 110.322 95.2511 113.902 95.2511 118.774Z" fill="#9D0B0B"/>
<path d="M3.89705 168.721V184.163H0V150.064H11.6912V153.181H3.89705V165.603H10.9605V168.721H3.89705Z" fill="#E23B1E"/>
<path d="M14.8693 176.028C14.8693 172.943 15.324 170.848 16.2333 169.744C17.1426 168.607 18.4416 168.039 20.1303 168.039C21.8191 168.039 23.1506 168.688 24.1248 169.987V164.872C24.1248 161.755 23.1506 160.196 21.202 160.196C19.5458 160.196 17.9707 161.154 16.4769 163.07L15.1616 160.342C15.9085 159.433 16.8503 158.67 17.987 158.053C19.1561 157.436 20.3414 157.127 21.543 157.127C25.7648 157.127 27.8757 159.985 27.8757 165.701V184.163H25.5862L24.8068 180.997C24.4496 182.296 23.8488 183.27 23.0044 183.919C22.1925 184.569 21.267 184.894 20.2278 184.894C18.4741 184.894 17.1426 184.342 16.2333 183.237C15.324 182.101 14.8693 179.99 14.8693 176.905V176.028ZM21.0072 181.825C21.949 181.825 22.6797 181.484 23.1993 180.802C23.7514 180.12 24.0599 178.886 24.1248 177.099V175.784C24.0599 173.868 23.7514 172.537 23.1993 171.79C22.6797 171.043 21.949 170.669 21.0072 170.669C19.3834 170.669 18.5715 172.212 18.5715 175.297V177.197C18.5715 180.282 19.3834 181.825 21.0072 181.825Z" fill="#E23B1E"/>
<path d="M42.3515 178.269C42.3515 176.417 41.6696 175.005 40.3056 174.031L36.9444 171.644C34.4438 169.987 33.1935 167.535 33.1935 164.288C33.1935 161.657 33.7456 159.806 34.8497 158.735C35.9864 157.663 37.5127 157.127 39.4288 157.127C41.3448 157.127 42.8387 157.63 43.9104 158.637C44.9821 159.644 45.6316 161.479 45.8589 164.142L42.4977 164.824C42.3353 161.674 41.3286 160.099 39.4775 160.099C37.6588 160.099 36.7495 161.381 36.7495 163.947C36.7495 166.025 37.4315 167.568 38.7955 168.575L42.0106 170.815C42.8224 171.368 43.4557 171.871 43.9104 172.326C44.3975 172.748 44.8522 173.478 45.2743 174.518C45.729 175.524 45.9563 176.71 45.9563 178.074C45.9563 180.574 45.3718 182.344 44.2026 183.383C43.0335 184.39 41.4422 184.894 39.4288 184.894C37.4478 184.894 35.8889 184.309 34.7523 183.14C33.6156 181.938 32.9174 179.844 32.6576 176.856L36.1163 176.223C36.2462 178.334 36.5709 179.811 37.0905 180.656C37.6426 181.5 38.3895 181.922 39.3313 181.922C41.3448 181.922 42.3515 180.704 42.3515 178.269Z" fill="#E23B1E"/>
<path d="M48.9495 160.878V157.858H51.5313L52.8466 151.379H55.0874V157.858H58.546V160.878H55.0874V179.194C55.0874 180.915 55.5583 181.776 56.5001 181.776C57.1171 181.776 57.7666 181.516 58.4486 180.997L59.1793 183.871C58.0751 184.553 56.9385 184.894 55.7694 184.894C52.8466 184.894 51.3852 182.734 51.3852 178.415V160.878H48.9495Z" fill="#E23B1E"/>
<path d="M73.5893 168.721V184.163H69.6922V150.064H81.3834V153.181H73.5893V165.603H80.6527V168.721H73.5893Z" fill="#E23B1E"/>
<path d="M98.4448 167.357V174.664C98.4448 178.528 97.844 181.208 96.6424 182.701C95.4733 184.163 93.7846 184.894 91.5762 184.894C89.4004 184.894 87.7116 184.163 86.51 182.701C85.3409 181.208 84.7564 178.528 84.7564 174.664V167.357C84.7564 163.492 85.3409 160.829 86.51 159.368C87.7116 157.874 89.4004 157.127 91.5762 157.127C93.7846 157.127 95.4733 157.874 96.6424 159.368C97.844 160.829 98.4448 163.492 98.4448 167.357ZM94.6939 175.346V166.675C94.6939 162.323 93.6709 160.147 91.6249 160.147C89.514 160.147 88.4586 162.323 88.4586 166.675V175.346C88.4586 179.698 89.514 181.873 91.6249 181.873C93.6709 181.873 94.6939 179.698 94.6939 175.346Z" fill="#E23B1E"/>
<path d="M116.903 167.357V174.664C116.903 178.528 116.302 181.208 115.1 182.701C113.931 184.163 112.242 184.894 110.034 184.894C107.858 184.894 106.169 184.163 104.968 182.701C103.799 181.208 103.214 178.528 103.214 174.664V167.357C103.214 163.492 103.799 160.829 104.968 159.368C106.169 157.874 107.858 157.127 110.034 157.127C112.242 157.127 113.931 157.874 115.1 159.368C116.302 160.829 116.903 163.492 116.903 167.357ZM113.152 175.346V166.675C113.152 162.323 112.129 160.147 110.083 160.147C107.972 160.147 106.916 162.323 106.916 166.675V175.346C106.916 179.698 107.972 181.873 110.083 181.873C112.129 181.873 113.152 179.698 113.152 175.346Z" fill="#E23B1E"/>
<path d="M126.982 184.894C125.293 184.894 123.978 184.163 123.036 182.701C122.126 181.208 121.672 178.528 121.672 174.664V167.357C121.672 163.492 122.126 160.829 123.036 159.368C123.978 157.874 125.293 157.127 126.982 157.127C129.32 157.127 130.911 158.524 131.755 161.316V148.115H135.312V184.163H133.022L131.853 179.097C131.203 182.961 129.58 184.894 126.982 184.894ZM131.073 177.976C131.431 176.288 131.609 173.966 131.609 171.01C131.609 168.055 131.414 165.749 131.025 164.093C130.668 162.404 130.229 161.333 129.71 160.878C129.222 160.391 128.573 160.147 127.761 160.147C126.105 160.147 125.277 162.161 125.277 166.188V175.833C125.277 178.074 125.504 179.649 125.959 180.558C126.413 181.435 127.047 181.873 127.858 181.873C128.67 181.873 129.32 181.646 129.807 181.191C130.294 180.704 130.716 179.633 131.073 177.976Z" fill="#E23B1E"/>
<path d="M110.325 38.1587C110.325 39.8454 109.654 41.463 108.462 42.6557C107.269 43.8484 105.651 44.5184 103.965 44.5184H34.0072C32.3205 44.5184 30.7029 43.8484 29.5102 42.6557C28.3175 41.463 27.6474 39.8454 27.6474 38.1587C27.6474 36.4719 28.3175 34.8543 29.5102 33.6616C30.7029 32.4689 32.3205 31.7989 34.0072 31.7989H103.965C105.651 31.7989 107.269 32.4689 108.462 33.6616C109.654 34.8543 110.325 36.4719 110.325 38.1587ZM43.5469 50.8782H34.0072C34.0072 55.9384 36.0174 60.7913 39.5954 64.3693C43.1735 67.9474 48.0264 69.9576 53.0866 69.9576H84.8854C89.9456 69.9576 94.7985 67.9474 98.3766 64.3693C101.955 60.7913 103.965 55.9384 103.965 50.8782H43.5469ZM40.367 25.4391H34.0072V12.7196C34.0072 9.34612 35.3473 6.11085 37.7327 3.72547C40.1181 1.34009 43.3533 0 46.7268 0H91.2452C94.6187 0 97.8539 1.34009 100.239 3.72547C102.625 6.11085 103.965 9.34612 103.965 12.7196V25.4391H40.367ZM91.2452 15.8994C91.2452 16.7428 91.5802 17.5516 92.1766 18.148C92.7729 18.7443 93.5817 19.0793 94.4251 19.0793C95.2685 19.0793 96.0773 18.7443 96.6736 18.148C97.27 17.5516 97.605 16.7428 97.605 15.8994C97.605 15.0561 97.27 14.2473 96.6736 13.6509C96.0773 13.0546 95.2685 12.7196 94.4251 12.7196C93.5817 12.7196 92.7729 13.0546 92.1766 13.6509C91.5802 14.2473 91.2452 15.0561 91.2452 15.8994ZM78.5257 9.53967C78.5257 10.383 78.8607 11.1918 79.457 11.7882C80.0534 12.3845 80.8622 12.7196 81.7056 12.7196C82.5489 12.7196 83.3577 12.3845 83.9541 11.7882C84.5504 11.1918 84.8854 10.383 84.8854 9.53967C84.8854 8.69631 84.5504 7.88749 83.9541 7.29115C83.3577 6.6948 82.5489 6.35978 81.7056 6.35978C80.8622 6.35978 80.0534 6.6948 79.457 7.29115C78.8607 7.88749 78.5257 8.69631 78.5257 9.53967ZM65.8061 15.8994C65.8061 16.7428 66.1411 17.5516 66.7375 18.148C67.3338 18.7443 68.1426 19.0793 68.986 19.0793C69.8294 19.0793 70.6382 18.7443 71.2345 18.148C71.8309 17.5516 72.1659 16.7428 72.1659 15.8994C72.1659 15.0561 71.8309 14.2473 71.2345 13.6509C70.6382 13.0546 69.8294 12.7196 68.986 12.7196C68.1426 12.7196 67.3338 13.0546 66.7375 13.6509C66.1411 14.2473 65.8061 15.0561 65.8061 15.8994ZM53.0866 9.53967C53.0866 10.383 53.4216 11.1918 54.0179 11.7882C54.6143 12.3845 55.4231 12.7196 56.2664 12.7196C57.1098 12.7196 57.9186 12.3845 58.515 11.7882C59.1113 11.1918 59.4463 10.383 59.4463 9.53967C59.4463 8.69631 59.1113 7.88749 58.515 7.29115C57.9186 6.6948 57.1098 6.35978 56.2664 6.35978C55.4231 6.35978 54.6143 6.6948 54.0179 7.29115C53.4216 7.88749 53.0866 8.69631 53.0866 9.53967ZM40.367 15.8994C40.367 16.7428 40.702 17.5516 41.2984 18.148C41.8947 18.7443 42.7035 19.0793 43.5469 19.0793C44.3902 19.0793 45.1991 18.7443 45.7954 18.148C46.3918 17.5516 46.7268 16.7428 46.7268 15.8994C46.7268 15.0561 46.3918 14.2473 45.7954 13.6509C45.1991 13.0546 44.3902 12.7196 43.5469 12.7196C42.7035 12.7196 41.8947 13.0546 41.2984 13.6509C40.702 14.2473 40.367 15.0561 40.367 15.8994Z" fill="#E23B1E"/>
</svg>
